 
http://www.imdb.com/title/tt2088923/



[b]Plot: A godless man is recruited by a secret organization who works to combat demonic possessions in order to prepare a new generation in the battle against evil forces. 
Action/horror story centered on a secret organization formed by the Catholic Church to counteract the rising number of cases of demonic possessions across the country. The story follows a young godless man who is being recruited into the cloth in order to prepare a new generation with the tools needed to stop the rise of the ultimate evil; Beelzebub.


Director:
 Justin Price 

Writer:
 Justin Price 

Stars:
 Danny Trejo, Eric Roberts, Rachele Brooke Smith

Genres:
  Adventure |  Sci-Fi |  Thriller 

Country:
 USA 

Language:
 English [/b]


Format                                   : MPEG-4
Format profile                           : Base Media / Version 2
Codec ID                                 : mp42
File size                                : 992 MiB
Duration                                 : 1h 30mn
Overall bit rate mode                    : Variable
Overall bit rate                         : 1 530 Kbps
Encoded date                             : UTC 2013-04-18 00:50:33
Tagged date                              : UTC 2013-04-18 01:00:30
Writing application                      : HandBrake 0.9.8 2012071700

Video
ID                                       : 201
Format                                   : AVC
Format/Info                              : Advanced Video Codec
Format profile                           : Main@L3.0
Format settings, CABAC                   : Yes
Format settings, ReFrames                : 4 frames
Codec ID                                 : avc1
Codec ID/Info                            : Advanced Video Coding
Duration                                 : 1h 30mn
Bit rate                                 : 1 400 Kbps
Width                                    : 720 pixels
Height                                   : 304 pixels
Display aspect ratio                     : 2.35:1
Frame rate mode                          : Constant
Frame rate                               : 25.000 fps
Color space                              : YUV
Chroma subsampling                       : 4:2:0
Bit depth                                : 8 bits
Scan type                                : Progressive
Bits/(Pixel*Frame)                       : 0.256
Stream size                              : 886 MiB (89%)
Writing library                          : x264 core 120
Encoding settings                        : cabac=1 / ref=1 / deblock=1:0:0 / analyse=0x1:0x111 / me=hex / subme=2 / psy=1 / psy_rd=1.00:0.00 / mixed_ref=0 / me_range=16 / chroma_me=1 / trellis=0 / 8x8dct=0 / cqm=0 / deadzone=21,11 / fast_pskip=1 / chroma_qp_offset=0 / threads=12 / sliced_threads=0 / nr=0 / decimate=1 / interlaced=0 / bluray_compat=0 / constrained_intra=0 / bframes=3 / b_pyramid=2 / b_adapt=1 / b_bias=0 / direct=1 / weightb=1 / open_gop=0 / weightp=1 / keyint=250 / keyint_min=25 / scenecut=40 / intra_refresh=0 / rc_lookahead=10 / rc=abr / mbtree=1 / bitrate=1400 / ratetol=1.0 / qcomp=0.60 / qpmin=3 / qpmax=69 / qpstep=4 / ip_ratio=1.40 / aq=1:1.00
Encoded date                             : UTC 2013-04-18 00:50:33
Tagged date                              : UTC 2013-04-18 09:09:06
Color primaries                          : BT.601-6 525, BT.1358 525, BT.1700 NTSC, SMPTE 170M
Transfer characteristics                 : BT.709-5, BT.1361
Matrix coefficients                      : BT.601-6 525, BT.1358 525, BT.1700 NTSC, SMPTE 170M

Audio
ID                                       : 101
Format                                   : AAC
Format/Info                              : Advanced Audio Codec
Format profile                           : LC
Codec ID                                 : 40
Duration                                 : 1h 30mn
Bit rate mode                            : Variable
Bit rate                                 : 157 Kbps
Maximum bit rate                         : 259 Kbps
Channel(s)                               : 2 channels
Channel positions                        : Front: L R
Sampling rate                            : 48.0 KHz
Compression mode                         : Lossy
Delay relative to video                  : -80ms
Stream size                              : 102 MiB (10%)
Language                                 : English
Encoded date                             : UTC 2013-04-18 00:50:33
Tagged date                              : UTC 2013-04-18 09:09:06




 
http://www.shotpix.com/images/78385098806401903547.png 
http://www.shotpix.com/images/77955327959915769097.png 
http://www.shotpix.com/images/72658967537449400621.png 
http://www.shotpix.com/images/56671075433160860176.png 
http://www.shotpix.com/images/45071846866522419418.png 
http://www.shotpix.com/images/31211874970498926028.png 
http://www.shotpix.com/images/94062735023574804417.png 
http://www.shotpix.com/images/56715661188242508266.png